<svg width="47" height="46" viewBox="0 0 47 46" fill="none" xmlns="http://www.w3.org/2000/svg">
<g clip-path="url(#clip0_1_13)">
<rect width="46" height="46" transform="translate(0.673462)" fill="white"/>
<path d="M13.1544 18.2086L17.8502 20.1962C18.4444 19.0066 19.0915 17.8553 19.7918 16.7424C20.492 15.6294 21.265 14.5471 22.1109 13.4955L19.1689 12.932C18.9721 12.8822 18.7817 12.888 18.5977 12.9493C18.4137 13.0106 18.2476 13.1148 18.0994 13.2617L13.1544 18.2086ZM19.3682 21.4114L24.7924 26.8279C26.3065 26.1443 27.8303 25.2754 29.3636 24.2212C30.8969 23.167 32.3715 21.9321 33.7873 20.5163C35.8509 18.4527 37.4277 16.2517 38.5176 13.9134C39.6075 11.575 40.2202 8.87509 40.3557 5.81354C37.2941 5.94898 34.598 6.56168 32.2674 7.65162C29.9392 8.74157 27.7427 10.3183 25.6779 12.382C24.2634 13.7977 23.029 15.278 21.9749 16.8229C20.9207 18.3677 20.0518 19.8972 19.3682 21.4114ZM29.2965 16.8593C28.7343 16.2971 28.4532 15.6224 28.4532 14.8353C28.4532 14.0482 28.7343 13.3729 29.2965 12.8094C29.8587 12.2459 30.5424 11.9648 31.3474 11.966C32.1524 11.9673 32.8353 12.2484 33.3963 12.8094C33.9572 13.3703 34.2383 14.0456 34.2396 14.8353C34.2409 15.625 33.9598 16.2996 33.3963 16.8593C32.834 17.4215 32.1504 17.7026 31.3454 17.7026C30.5404 17.7026 29.8562 17.4215 29.2965 16.8593ZM27.9587 33.0532L32.9056 28.1063C33.0525 27.9581 33.1573 27.792 33.2199 27.608C33.2813 27.424 33.2877 27.2336 33.2391 27.0368L32.6737 24.0947C31.6221 24.9406 30.5398 25.7117 29.4269 26.4081C28.3139 27.1045 27.1626 27.7498 25.973 28.344L27.9587 33.0532ZM42.1459 4.04829C42.3605 7.56984 41.8622 10.809 40.6509 13.7658C39.4408 16.7238 37.5561 19.4826 34.9967 22.042L34.6632 22.3735L34.3316 22.7051L35.1059 26.6381C35.2094 27.1543 35.1903 27.6546 35.0484 28.1389C34.9053 28.6232 34.6472 29.0518 34.2741 29.425L27.2936 36.369L24.1158 28.8845L17.2848 22.0535L9.80019 18.8392L16.7328 11.8951C17.1059 11.522 17.5365 11.2581 18.0246 11.1035C18.5127 10.9489 19.0149 10.9234 19.5311 11.0269L23.5369 11.8357C23.6596 11.713 23.7637 11.6025 23.8494 11.5041C23.935 11.4057 24.0397 11.2952 24.1637 11.1725C26.7244 8.61187 29.4812 6.73098 32.4341 5.52987C35.387 4.32876 38.623 3.8349 42.1459 4.04829Z" fill="black"/>
<g clip-path="url(#clip1_1_13)">
<path d="M9.21656 29.4263C7.66933 31.2622 7.68584 33.2385 9.2661 35.3553C8.86278 33.8379 9.17087 32.7239 10.1904 32.0131C10.7728 31.6074 11.495 31.5769 12.2944 31.5424C13.5975 31.4851 15.1054 31.4203 16.5435 29.7139C18.0908 27.8779 18.0742 25.9016 16.494 23.7849C16.8973 25.3022 16.5892 26.4163 15.5697 27.127C14.9873 27.5327 14.2651 27.5633 13.4657 27.5977C12.1626 27.6551 10.6547 27.7199 9.21656 29.4263ZM10.7414 36.5986C9.19416 38.4345 9.21068 40.4108 10.7909 42.5276C10.3876 41.0102 10.6957 39.8962 11.7152 39.1854C12.2976 38.7797 13.0198 38.7492 13.8192 38.7147C15.1224 38.6574 16.6303 38.5926 18.0684 36.8862C19.6156 35.0502 19.5991 33.0739 18.0188 30.9572C18.4221 32.4745 18.1141 33.5886 17.0946 34.2993C16.5121 34.705 15.79 34.7356 14.9905 34.77C13.6874 34.8274 12.1795 34.8922 10.7414 36.5986Z" stroke="black" stroke-width="1.4" stroke-linejoin="round"/>
</g>
</g>
<defs>
<clipPath id="clip0_1_13">
<rect width="46" height="46" fill="white" transform="translate(0.673462)"/>
</clipPath>
<clipPath id="clip1_1_13">
<rect width="19.2934" height="19.2934" fill="white" transform="translate(0.0494003 34.3162) rotate(-49.8774)"/>
</clipPath>
</defs>
</svg>
